<svg width="47" height="51" viewBox="0 0 47 51" fill="none" xmlns="http://www.w3.org/2000/svg">
<path opacity="0.3" fill-rule="evenodd" clip-rule="evenodd" d="M46.0425 0.859375H0.0424805V50.8594H46.0425V0.859375ZM28.8215 25.1312H23.8295V20.0752C23.8295 19.8192 23.7015 19.6912 23.4455 19.6912H22.7095C22.4535 19.6912 22.3255 19.8192 22.3255 20.0752V25.1312H17.3335C17.0775 25.1312 16.9495 25.2486 16.9495 25.4832V26.1872C16.9495 26.4219 17.0775 26.5392 17.3335 26.5392H22.3255V31.5952C22.3255 31.8512 22.4535 31.9792 22.7095 31.9792H23.4455C23.7015 31.9792 23.8295 31.8512 23.8295 31.5952V26.5392H28.8215C29.0775 26.5392 29.2055 26.4219 29.2055 26.1872V25.4832C29.2055 25.2486 29.0775 25.1312 28.8215 25.1312Z" fill="white"/>
</svg>
